<svg width="201" height="55" viewBox="0 0 201 55" fill="none" xmlns="http://www.w3.org/2000/svg">
<path d="M45.0732 34.3047C45.1369 34.9177 45.1699 35.54 45.1699 36.1699C45.1699 46.0239 37.1821 54.0117 27.3281 54.0117C18.969 54.0117 11.9541 48.2633 10.0176 40.5039L14.5957 38.4541L16.708 37.3115C17.7833 39.2623 22.5208 45.0016 28.2988 44.7275C35.5214 44.385 39.2892 38.5215 41.8594 36.4199C43.2484 35.2842 44.3358 34.4822 45.0732 34.3047Z" fill="#BC2F2F"/>
<path d="M27.3281 0C39.1062 0 48.8852 8.5527 50.7969 19.7861C49.7246 20.3476 45.1792 22.7037 44.6006 22.5527C43.944 22.3814 42.7448 21.6387 42.1738 21.6387C41.6033 21.6405 42.1742 27.4585 41.375 27.9199C40.5756 28.3813 35.3508 22.0106 34.5801 22.1533C33.8109 22.3003 36.8925 33.7445 36.1504 33.9434C35.4068 34.1393 27.3314 21.1572 26.5303 21.6387C25.7309 22.124 30.4122 36.9701 29.6699 37.1689C28.9261 37.3649 22.2191 27.2634 21.4199 27.9199C20.6213 28.5782 22.668 37.1692 21.877 37.626C21.086 38.0827 16.7682 33.1165 15.9678 33.1719C15.1684 33.229 15.1678 36.1125 14.9395 36.4551C14.7108 36.7977 9.42969 39.1953 9.42969 39.1953C9.37577 39.2353 9.31982 39.2749 9.26367 39.3164C5.68388 35.1502 3.51953 29.7324 3.51953 23.8086C3.51959 10.6595 14.1791 0.000116961 27.3281 0Z" fill="#BC2F2F"/>
<path d="M80.3153 39.7439H68.0659C67.4404 39.7439 66.757 39.6339 66.0156 39.4138C65.2743 39.1937 64.5851 38.8346 63.948 38.3365C63.3225 37.8269 62.7955 37.1724 62.3669 36.3732C61.9499 35.5623 61.7414 34.5719 61.7414 33.402V27.286C61.7414 26.8575 61.7877 26.4057 61.8804 25.9308C61.9847 25.4559 62.141 24.9868 62.3495 24.5234C62.558 24.0485 62.8244 23.5968 63.1488 23.1682C63.4847 22.7396 63.8843 22.3631 64.3476 22.0388C64.8226 21.7145 65.367 21.4538 65.9809 21.2569C66.5948 21.06 67.2898 20.9615 68.0659 20.9615H80.3153V25.479H68.0659C67.4751 25.479 67.0234 25.6296 66.7106 25.9308C66.4095 26.232 66.2589 26.6953 66.2589 27.3208V33.402C66.2589 33.9928 66.4153 34.4445 66.728 34.7573C67.0408 35.07 67.4983 35.2264 68.1006 35.2264H80.3153V39.7439ZM91.5923 39.7439H89.5768C88.9281 39.7439 88.2331 39.6339 87.4918 39.4138C86.7621 39.1937 86.0786 38.8346 85.4416 38.3365C84.8045 37.8269 84.2774 37.1724 83.8604 36.3732C83.4434 35.5623 83.2349 34.5719 83.2349 33.402V13.0212H87.7524V33.402C87.7524 33.958 87.9262 34.404 88.2737 34.7399C88.6212 35.0642 89.0556 35.2264 89.5768 35.2264H91.5923V39.7439ZM113.173 33.5237C113.173 34.1492 113.063 34.8268 112.843 35.5565C112.623 36.2747 112.263 36.9465 111.765 37.572C111.279 38.1859 110.636 38.7014 109.837 39.1184C109.049 39.5354 108.088 39.7439 106.952 39.7439H98.8036C98.1781 39.7439 97.5005 39.6339 96.7707 39.4138C96.0526 39.1937 95.3807 38.8404 94.7552 38.3539C94.1413 37.8558 93.6259 37.2129 93.2089 36.4253C92.7919 35.626 92.5834 34.6588 92.5834 33.5237C92.5834 32.8982 92.6934 32.2205 92.9135 31.4908C93.1336 30.761 93.4869 30.0892 93.9734 29.4753C94.4715 28.8498 95.1143 28.3285 95.902 27.9115C96.7012 27.4945 97.6684 27.286 98.8036 27.286H106.952V31.595H98.8036C98.1897 31.595 97.7148 31.7862 97.3789 32.1684C97.0429 32.5391 96.875 33.0024 96.875 33.5584C96.875 34.1492 97.0661 34.6125 97.4484 34.9484C97.8422 35.2727 98.3055 35.4349 98.8384 35.4349H106.952C107.566 35.4349 108.041 35.2496 108.377 34.8789C108.713 34.5082 108.881 34.0449 108.881 33.4889V27.1818C108.881 26.591 108.696 26.1219 108.325 25.7744C107.966 25.4269 107.508 25.2532 106.952 25.2532H97.0314V20.9615H106.952C107.578 20.9615 108.25 21.0716 108.968 21.2917C109.698 21.5118 110.37 21.8708 110.983 22.3689C111.609 22.8554 112.13 23.4983 112.547 24.2975C112.964 25.0852 113.173 26.0466 113.173 27.1818V33.5237ZM147.246 20.9615C146.528 22.5716 145.751 24.1585 144.917 25.7223C144.083 27.2745 143.209 28.7455 142.294 30.1355C141.39 31.5255 140.464 32.8113 139.514 33.9928C138.564 35.1627 137.62 36.1762 136.682 37.0334C135.755 37.879 134.846 38.545 133.954 39.0315C133.074 39.5064 132.24 39.7439 131.452 39.7439C131.128 39.7439 130.826 39.686 130.548 39.5701C130.27 39.4543 130.027 39.2979 129.819 39.101C129.61 38.8925 129.448 38.6493 129.332 38.3713C129.216 38.0933 129.158 37.7921 129.158 37.4678V29.0409L120.193 39.0663C119.961 39.2979 119.706 39.4717 119.428 39.5875C119.162 39.6918 118.884 39.7439 118.594 39.7439C118.282 39.7439 117.986 39.686 117.708 39.5701C117.442 39.4543 117.204 39.2979 116.996 39.101C116.787 38.8925 116.619 38.6493 116.492 38.3713C116.376 38.0933 116.318 37.7921 116.318 37.4678V20.9615H120.836V31.6645L129.836 21.6044C130.16 21.2801 130.543 21.0774 130.983 20.9963C131.435 20.9036 131.875 20.95 132.303 21.1353C132.732 21.309 133.068 21.587 133.311 21.9693C133.566 22.34 133.693 22.7512 133.693 23.2029V33.9407C134.666 33.0024 135.547 32.012 136.334 30.9695C137.122 29.927 137.852 28.8556 138.523 27.7552C139.207 26.6432 139.844 25.5196 140.435 24.3844C141.037 23.2377 141.622 22.0967 142.19 20.9615H147.246ZM168.705 33.402C168.705 34.1781 168.606 34.8789 168.409 35.5044C168.212 36.1183 167.952 36.6627 167.627 37.1377C167.303 37.601 166.926 38.0006 166.498 38.3365C166.069 38.6609 165.618 38.9273 165.143 39.1358C164.679 39.3443 164.204 39.5006 163.718 39.6049C163.243 39.6976 162.791 39.7439 162.363 39.7439H154.214C153.438 39.7439 152.743 39.6454 152.129 39.4485C151.515 39.2516 150.97 38.991 150.496 38.6666C150.032 38.3307 149.633 37.9485 149.297 37.5199C148.972 37.0913 148.706 36.6454 148.497 36.182C148.289 35.7071 148.133 35.2322 148.028 34.7573C147.936 34.2708 147.889 33.819 147.889 33.402V27.286C147.889 26.1277 148.098 25.1489 148.515 24.3497C148.943 23.5388 149.47 22.8844 150.096 22.3863C150.733 21.8766 151.422 21.5118 152.164 21.2917C152.905 21.0716 153.588 20.9615 154.214 20.9615H162.363V25.479H154.249C153.646 25.479 153.189 25.6354 152.876 25.9482C152.563 26.2493 152.407 26.6953 152.407 27.286V33.3673C152.407 33.9812 152.557 34.4445 152.859 34.7573C153.171 35.07 153.623 35.2264 154.214 35.2264H162.363C162.977 35.2264 163.434 35.07 163.735 34.7573C164.036 34.4445 164.187 33.9928 164.187 33.402V13.0212H168.705V33.402ZM175.821 17.1043H171.304V13.0212H175.821V17.1043ZM175.821 39.7439H171.304V20.9615H175.821V39.7439ZM198.819 33.402C198.819 34.1781 198.72 34.8789 198.523 35.5044C198.327 36.1183 198.066 36.6627 197.742 37.1377C197.417 37.601 197.041 38.0006 196.612 38.3365C196.184 38.6609 195.732 38.9273 195.257 39.1358C194.794 39.3443 194.319 39.5006 193.832 39.6049C193.357 39.6976 192.906 39.7439 192.477 39.7439H184.328C183.703 39.7439 183.019 39.6339 182.278 39.4138C181.537 39.1937 180.847 38.8346 180.21 38.3365C179.585 37.8269 179.058 37.1724 178.629 36.3732C178.212 35.5623 178.004 34.5719 178.004 33.402V27.286C178.004 26.1277 178.212 25.1489 178.629 24.3497C179.058 23.5388 179.585 22.8844 180.21 22.3863C180.847 21.8766 181.537 21.5118 182.278 21.2917C183.019 21.0716 183.703 20.9615 184.328 20.9615H192.477C193.635 20.9615 194.62 21.17 195.431 21.587C196.242 22.004 196.896 22.5311 197.394 23.1682C197.892 23.7937 198.251 24.4771 198.471 25.2184C198.703 25.9598 198.819 26.649 198.819 27.286V33.402ZM194.301 27.3208C194.301 26.6953 194.145 26.232 193.832 25.9308C193.519 25.6296 193.068 25.479 192.477 25.479H184.363C183.761 25.479 183.303 25.6354 182.99 25.9482C182.677 26.2493 182.521 26.6953 182.521 27.286V33.402C182.521 33.9928 182.677 34.4445 182.99 34.7573C183.303 35.07 183.761 35.2264 184.363 35.2264H192.477C193.091 35.2264 193.548 35.07 193.85 34.7573C194.151 34.4445 194.301 33.9928 194.301 33.402V27.3208Z" fill="#A09FA6"/>
</svg>
